<svg width="158" height="34" viewBox="0 0 158 34" xmlns="http://www.w3.org/2000/svg" xmlns:xlink="http://www.w3.org/1999/xlink" fill="none" overflow="hidden"><style>
.MsftOfcThm_Background1_Fill_v2 {
 fill:#FFFFFF; 
}
</style>
<path d="M42.2768 4.67773 36.0232 4.67773C35.885 4.67773 35.7729 4.78972 35.7729 4.92785L35.7729 14.2212C35.7729 14.3594 35.885 14.4714 36.0232 14.4714L42.2768 14.4714C42.415 14.4714 42.5271 14.3594 42.5271 14.2212L42.5271 4.92785C42.5271 4.78972 42.415 4.67773 42.2768 4.67773Z" class="MsftOfcThm_Background1_Fill_v2" stroke="none" stroke-width="1" stroke-linecap="butt" stroke-linejoin="miter" stroke-miterlimit="4" fill="#FFFFFF" fill-opacity="1"/><path d="M42.2768 19.2793 36.0232 19.2793C35.885 19.2793 35.7729 19.3913 35.7729 19.5294L35.7729 29.0729C35.7729 29.2111 35.885 29.323 36.0232 29.323L42.2768 29.323C42.415 29.323 42.5271 29.2111 42.5271 29.0729L42.5271 19.5294C42.5271 19.3913 42.415 19.2793 42.2768 19.2793Z" class="MsftOfcThm_Background1_Fill_v2" stroke="none" stroke-width="1" stroke-linecap="butt" stroke-linejoin="miter" stroke-miterlimit="4" fill="#FFFFFF" fill-opacity="1"/><path d="M157.75 0 151.488 0C151.35 0 151.238 0.111981 151.238 0.250117L151.238 29.0057C151.238 29.1439 151.35 29.2558 151.488 29.2558L157.75 29.2558C157.888 29.2558 158 29.1439 158 29.0057L158 0.250117C158 0.111981 157.888 0 157.75 0Z" class="MsftOfcThm_Background1_Fill_v2" stroke="none" stroke-width="1" stroke-linecap="butt" stroke-linejoin="miter" stroke-miterlimit="4" fill="#FFFFFF" fill-opacity="1"/><path d="M98.9063 4.1626C91.8237 4.1626 86.0747 9.91919 86.0747 17.0006 86.0747 24.082 91.9489 29.8308 99.1566 29.8308 103.768 29.8308 107.057 27.8064 108.574 26.6067 108.574 26.6067 108.785 26.4386 108.574 26.2237 108.574 26.2237 104.921 22.5696 104.906 22.5579 104.804 22.4602 104.679 22.4993 104.589 22.5579 103.134 23.5701 101.491 24.0742 99.6572 24.0742 95.7972 24.0742 93.5875 21.6708 93.1456 19.2712L110.784 19.2712C110.784 19.2712 110.991 19.279 111.034 19.0797 111.1 18.7632 111.226 17.8174 111.226 16.4848 111.226 9.46976 105.919 4.1626 98.9024 4.1626L98.9063 4.1626ZM93.0908 14.4721C93.9121 11.6935 96.1218 9.91919 98.8399 9.91919L98.9063 9.91919C101.687 9.91919 103.897 11.6856 104.405 14.4721L93.0869 14.4721 93.0908 14.4721Z" class="MsftOfcThm_Background1_Fill_v2" stroke="none" stroke-width="1" stroke-linecap="butt" stroke-linejoin="miter" stroke-miterlimit="4" fill="#FFFFFF" fill-opacity="1"/><path d="M14.0948 4.16895C9.41743 4.16895 6.82841 7.64322 6.82841 7.70966L6.82841 4.93102C6.82841 4.79033 6.715 4.6809 6.57812 4.6809L0.250297 4.6809C0.113416 4.6809 0 4.79424 0 4.93102L0 33.7492C0 33.8898 0.113416 33.9993 0.250297 33.9993L6.57812 33.9993C6.715 33.9993 6.82841 33.8859 6.82841 33.7492L6.82841 26.3004C6.98094 26.5036 9.55822 29.8294 14.087 29.8294 20.5987 29.8294 25.9057 24.0806 25.9057 16.9991 25.9057 9.91772 20.5987 4.16895 14.0948 4.16895ZM12.8316 23.6976C9.42525 23.6976 6.82841 20.7939 6.82841 16.9327 6.82841 13.0715 9.42134 10.1678 12.8316 10.1678 16.2419 10.1678 18.8348 13.0715 18.8348 16.9327 18.8348 20.7939 16.2419 23.6976 12.8316 23.6976Z" class="MsftOfcThm_Background1_Fill_v2" stroke="none" stroke-width="1" stroke-linecap="butt" stroke-linejoin="miter" stroke-miterlimit="4" fill="#FFFFFF" fill-opacity="1"/><path d="M68.6361 4.1626 68.5696 4.1626C64.1425 4.1626 61.5574 7.64469 61.5574 7.71113L61.5574 4.93249C61.5574 4.7918 61.444 4.68237 61.3071 4.68237L54.9832 4.68237C54.8463 4.68237 54.7329 4.79571 54.7329 4.93249L54.7329 29.0727C54.7329 29.2133 54.8463 29.3228 54.9832 29.3228L61.3071 29.3228C61.444 29.3228 61.5574 29.2094 61.5574 29.0727L61.5574 16.4926C61.5574 12.8932 63.4581 10.7438 66.5555 10.7438 69.3362 10.7438 71.3581 12.8268 71.3581 15.7344L71.3581 29.0766C71.3581 29.2133 71.4715 29.3267 71.6084 29.3267L77.9284 29.3267C78.0653 29.3267 78.1787 29.2133 78.1787 29.0766L78.1787 14.9723C78.1787 8.40286 74.4555 4.16651 68.6361 4.16651L68.6361 4.1626Z" class="MsftOfcThm_Background1_Fill_v2" stroke="none" stroke-width="1" stroke-linecap="butt" stroke-linejoin="miter" stroke-miterlimit="4" fill="#FFFFFF" fill-opacity="1"/><path d="M130.002 4.11475C124.186 4.11475 120.897 8.02673 120.268 8.77708 120.178 8.89432 120.189 9.01547 120.268 9.09363L123.682 12.5093C123.682 12.5093 123.889 12.7125 124.065 12.5093 124.507 11.9387 126.275 10.1723 129.439 10.1723 132.032 10.1723 133.733 11.5635 133.733 13.713L125.958 15.1042C121.406 15.9249 118.692 18.77 118.692 22.7563 118.692 26.7425 122.231 29.7712 126.971 29.7712 131.081 29.7712 133.608 26.8675 133.733 26.7425L133.733 29.0209C133.733 29.1616 133.846 29.271 133.983 29.271L140.307 29.271C140.444 29.271 140.557 29.1577 140.557 29.0209L140.557 13.9123C140.557 8.22213 136.13 4.11865 130.002 4.11865L130.002 4.11475ZM133.662 18.7036C133.662 22.1192 131.762 24.2022 128.672 24.2022 125.95 24.2022 125.383 22.8735 125.383 21.7323 125.383 20.2746 126.396 19.2703 128.164 18.9537L133.662 17.9415 133.662 18.7036Z" class="MsftOfcThm_Background1_Fill_v2" stroke="none" stroke-width="1" stroke-linecap="butt" stroke-linejoin="miter" stroke-miterlimit="4" fill="#FFFFFF" fill-opacity="1"/></svg>